<svg width="764" height="496" viewBox="0 0 764 496" fill="none" xmlns="http://www.w3.org/2000/svg">
<g clip-path="url(#clip0)">
<path d="M533.467 223.078C534.003 222.383 534.379 221.578 534.571 220.721C534.762 219.863 534.763 218.975 534.574 218.117C534.384 217.259 534.009 216.454 533.475 215.757C532.94 215.06 532.26 214.488 531.481 214.083L532.668 200.406L524.532 197.657L523.127 216.995C522.532 218.349 522.455 219.874 522.91 221.281C523.365 222.688 524.32 223.88 525.595 224.629C526.869 225.379 528.374 225.635 529.825 225.35C531.276 225.064 532.572 224.256 533.467 223.078Z" fill="#FFB8B8"/>
<path d="M574.066 329.416L566.742 329.415L563.258 301.163L574.069 301.164L574.066 329.416Z" fill="#FFB8B8"/>
<path d="M561.51 327.322H575.636V336.216H552.615C552.615 335.048 552.846 333.891 553.293 332.812C553.739 331.733 554.395 330.753 555.221 329.927C556.046 329.101 557.027 328.446 558.106 327.999C559.185 327.552 560.342 327.322 561.51 327.322Z" fill="#E8E8E9"/>
<path d="M557.44 310.669L550.327 312.417L540.2 285.814L550.698 283.234L557.44 310.669Z" fill="#FFB8B8"/>
<path d="M544.747 311.633L558.465 308.263L560.587 316.9L538.232 322.393C537.953 321.258 537.9 320.08 538.077 318.926C538.254 317.771 538.656 316.663 539.261 315.664C539.866 314.665 540.662 313.794 541.603 313.103C542.544 312.411 543.612 311.912 544.747 311.633Z" fill="#E8E8E9"/>
<path d="M565.494 320.409C564.825 320.41 564.18 320.163 563.683 319.716C563.186 319.268 562.873 318.653 562.805 317.987L554.376 239.47L547.042 263.48L557.43 300.981C557.608 301.624 557.543 302.31 557.247 302.908C556.951 303.506 556.444 303.973 555.825 304.22L547.566 307.524C547.226 307.66 546.862 307.726 546.496 307.717C546.13 307.708 545.769 307.626 545.436 307.474C545.103 307.322 544.804 307.104 544.557 306.834C544.31 306.563 544.121 306.245 544 305.899L531.269 269.374C529.876 265.386 529.259 261.168 529.453 256.948L531.23 217.531L578.028 219.513L577.298 317.034C577.289 317.713 577.027 318.364 576.563 318.86C576.1 319.357 575.468 319.662 574.791 319.716L565.703 320.401C565.633 320.406 565.563 320.409 565.494 320.409Z" fill="#E8E8E9"/>
<path d="M557.743 130.299C566.434 130.299 573.479 123.253 573.479 114.563C573.479 105.872 566.434 98.8269 557.743 98.8269C549.052 98.8269 542.007 105.872 542.007 114.563C542.007 123.253 549.052 130.299 557.743 130.299Z" fill="#FFB8B8"/>
<path d="M569.315 222.077C565.171 222.077 560.022 221.738 554.696 221.387C547.418 220.908 539.892 220.413 534.274 220.739C533.515 220.814 532.75 220.694 532.051 220.389C531.352 220.085 530.743 219.607 530.281 219C524.49 211.585 533.423 182.668 533.806 181.441L541.075 149.107L541.388 149.177L541.075 149.107C542.675 141.995 547.784 136.75 554.41 135.417C560.612 134.171 566.611 136.654 570.459 142.064C570.663 142.351 570.867 142.645 571.071 142.947C583.598 161.499 576.512 207.59 576.037 210.564C576.699 211.357 580.278 215.838 579.294 218.951C578.894 220.218 577.807 221.081 576.063 221.517C573.842 221.956 571.578 222.144 569.315 222.077Z" fill="#9337F0"/>
<path d="M534.528 222.092C533.103 222.092 531.18 221.566 528.587 220.487C527.473 220.023 524.082 218.613 528.198 182.64C530.22 164.97 533.117 147.423 533.146 147.248L533.174 147.079L533.33 147.009C533.404 146.975 540.802 143.584 542.088 139.227C542.133 139.076 542.183 138.93 542.238 138.788C542.592 137.82 543.306 137.025 544.232 136.571C545.157 136.116 546.223 136.036 547.206 136.348C548.244 136.596 549.149 137.23 549.737 138.121C550.325 139.012 550.552 140.094 550.372 141.146C549.924 143.988 549.063 146.749 547.815 149.341C544.335 156.523 541.976 175.563 541.953 175.754C541.82 177.38 538.661 215.907 538.052 218.831C537.839 219.852 537.448 221.102 536.301 221.708C535.75 221.979 535.141 222.111 534.528 222.092Z" fill="#E8E8E9"/>
<path d="M551.719 220.615C551.431 220.615 551.152 220.519 550.925 220.343C546.296 216.825 553.788 174.18 558.232 159.467C559.122 156.521 559.914 153.998 560.587 151.967C561.814 148.324 562.67 144.567 563.143 140.752C563.388 138.685 563.919 137.504 564.769 137.143C565.359 136.891 566.053 137.062 566.832 137.651C570.936 137.448 574.925 139.126 578.622 140.971L581.948 142.63L585.681 208.716C585.575 212.934 577.261 215.911 573.633 216.101C567.81 216.407 557.353 217.355 552.746 220.271C552.444 220.482 552.087 220.601 551.719 220.615Z" fill="#E8E8E9"/>
<path d="M530.924 208.215C530.868 208.215 530.813 208.214 530.758 208.21L523.218 207.747C522.843 207.724 522.476 207.623 522.142 207.45C521.808 207.278 521.513 207.038 521.277 206.745C521.04 206.453 520.868 206.114 520.769 205.752C520.671 205.389 520.649 205.009 520.705 204.637L524.117 182.035L530.539 150.322C530.698 149.541 531.018 148.802 531.48 148.153C531.943 147.503 532.536 146.958 533.222 146.553C533.909 146.148 534.672 145.891 535.464 145.8C536.256 145.709 537.058 145.785 537.819 146.024C539.119 146.439 540.228 147.305 540.945 148.465C541.663 149.626 541.942 151.005 541.732 152.353L536.629 184.129L533.609 205.879C533.516 206.525 533.194 207.117 532.701 207.546C532.208 207.975 531.577 208.213 530.924 208.215Z" fill="#E8E8E9"/>
<path d="M556.681 183.475C557.141 182.727 557.759 182.089 558.492 181.605C559.225 181.122 560.056 180.805 560.925 180.677C561.794 180.549 562.68 180.614 563.522 180.865C564.363 181.117 565.139 181.55 565.795 182.134L578.157 176.163L583.618 182.791L566.042 190.978C564.988 192.015 563.59 192.629 562.113 192.704C560.636 192.779 559.183 192.309 558.029 191.384C556.875 190.46 556.1 189.144 555.852 187.686C555.604 186.228 555.898 184.73 556.681 183.475Z" fill="#FFB8B8"/>
<path d="M573.854 189.888C573.245 189.888 572.654 189.683 572.176 189.306C571.698 188.93 571.36 188.403 571.218 187.811L569.422 180.348C569.285 179.786 569.332 179.196 569.556 178.663C569.779 178.13 570.168 177.683 570.665 177.388L581.494 170.907L575.959 150.64C575.568 149.199 575.653 147.671 576.202 146.283C576.724 144.966 577.639 143.843 578.823 143.066C580.007 142.288 581.401 141.895 582.816 141.938C584.232 141.982 585.6 142.46 586.733 143.309C587.867 144.157 588.712 145.334 589.152 146.68L595.264 165.34C596.015 167.615 596.021 170.07 595.281 172.348C594.541 174.626 593.094 176.609 591.15 178.009L575.441 189.374C574.979 189.708 574.424 189.888 573.854 189.888Z" fill="#E8E8E9"/>
<path d="M560.618 129.912C562.986 129.963 565.338 129.512 567.52 128.59C569.702 127.667 571.664 126.293 573.277 124.558C574.89 122.823 576.117 120.766 576.879 118.523C577.64 116.28 577.918 113.901 577.695 111.543C577.471 109.185 576.751 106.9 575.582 104.84C574.413 102.78 572.821 100.99 570.911 99.5892C569.001 98.1881 566.816 97.207 564.5 96.7104C562.183 96.2138 559.788 96.213 557.472 96.7081C554.011 94.6069 549.988 93.1931 545.955 93.5527C541.923 93.9123 537.935 96.3063 536.427 100.063C534.919 103.82 536.539 108.773 540.288 110.3C542.692 111.279 545.407 110.804 547.972 110.409C550.537 110.014 553.336 109.757 555.568 111.08C557.801 112.404 558.804 115.953 556.805 117.608C555.745 118.52 554.988 119.733 554.635 121.086C554.282 122.439 554.35 123.868 554.829 125.181C555.834 127.78 558.577 129.868 560.618 129.912Z" fill="#E8E8E9"/>
<path d="M456.862 0H153.687C150.853 0.00256499 148.137 1.12932 146.133 3.13293C144.129 5.13654 143.003 7.85327 143 10.6868V43.3097C143.003 46.1432 144.129 48.8599 146.133 50.8636C148.137 52.8672 150.853 53.9939 153.687 53.9965H456.862C459.696 53.9939 462.413 52.8672 464.416 50.8636C466.42 48.8599 467.547 46.1432 467.549 43.3097V10.6868C467.547 7.85327 466.42 5.13654 464.416 3.13293C462.413 1.12932 459.696 0.00256499 456.862 0ZM466.424 43.3097C466.421 45.8445 465.412 48.2746 463.62 50.067C461.827 51.8594 459.397 52.868 456.862 52.8716H153.687C151.152 52.868 148.722 51.8594 146.93 50.067C145.137 48.2746 144.129 45.8445 144.125 43.3097V10.6868C144.129 8.15193 145.137 5.72192 146.93 3.9295C148.722 2.13708 151.152 1.12851 153.687 1.12492H456.862C459.397 1.12851 461.827 2.13708 463.62 3.9295C465.412 5.72192 466.421 8.15193 466.424 10.6868V43.3097Z" fill="#C6C6C6"/>
<path d="M456.862 131.054H153.687C150.854 131.051 148.137 129.924 146.134 127.92C144.13 125.917 143.003 123.2 143 120.367V87.7443C143.003 84.911 144.13 82.1946 146.134 80.1911C148.137 78.1877 150.854 77.0607 153.687 77.0575H456.862C459.696 77.0607 462.412 78.1877 464.416 80.1911C466.419 82.1946 467.546 84.911 467.549 87.7443V120.367C467.546 123.201 466.419 125.917 464.416 127.92C462.412 129.924 459.696 131.051 456.862 131.054ZM153.687 78.1824C151.152 78.1852 148.721 79.1936 146.929 80.9862C145.136 82.7787 144.128 85.2092 144.125 87.7443V120.367C144.128 122.902 145.136 125.333 146.929 127.125C148.721 128.918 151.152 129.926 153.687 129.929H456.862C459.397 129.926 461.828 128.918 463.621 127.125C465.413 125.333 466.422 122.902 466.424 120.367V87.7443C466.422 85.2092 465.413 82.7788 463.621 80.9862C461.828 79.1936 459.397 78.1853 456.862 78.1824L153.687 78.1824Z" fill="#E3E1E1"/>
<path d="M456.862 208.111H153.687C150.854 208.108 148.137 206.981 146.134 204.978C144.13 202.974 143.003 200.258 143 197.425V164.802C143.003 161.968 144.13 159.252 146.134 157.249C148.137 155.245 150.854 154.118 153.687 154.115H456.862C459.696 154.118 462.412 155.245 464.416 157.249C466.419 159.252 467.546 161.968 467.549 164.802V197.425C467.546 200.258 466.419 202.974 464.416 204.978C462.412 206.981 459.696 208.108 456.862 208.111ZM153.687 155.24C151.152 155.243 148.721 156.251 146.929 158.044C145.136 159.836 144.128 162.267 144.125 164.802V197.425C144.128 199.96 145.136 202.39 146.929 204.183C148.721 205.975 151.152 206.984 153.687 206.987H456.862C459.397 206.984 461.828 205.975 463.621 204.183C465.413 202.39 466.422 199.96 466.424 197.425V164.802C466.422 162.267 465.413 159.836 463.621 158.044C461.828 156.251 459.397 155.243 456.862 155.24H153.687Z" fill="#E3E1E1"/>
<path d="M194.653 45.5987C190.974 45.5987 187.377 44.5079 184.318 42.464C181.26 40.4202 178.875 37.5152 177.467 34.1164C176.06 30.7176 175.691 26.9777 176.409 23.3695C177.127 19.7614 178.898 16.4471 181.5 13.8457C184.101 11.2444 187.415 9.47284 191.024 8.75513C194.632 8.03741 198.372 8.40576 201.771 9.81358C205.17 11.2214 208.075 13.6055 210.119 16.6643C212.162 19.7231 213.253 23.3194 213.253 26.9982C213.248 31.9296 211.286 36.6575 207.799 40.1445C204.312 43.6316 199.584 45.5931 194.653 45.5987Z" fill="#9337F0"/>
<path d="M429.396 42.1848H230.842C229.648 42.1848 228.504 41.7107 227.66 40.8668C226.816 40.023 226.342 38.8785 226.342 37.6851C226.342 36.4917 226.816 35.3472 227.66 34.5033C228.504 33.6594 229.648 33.1854 230.842 33.1854H429.396C430.589 33.1854 431.734 33.6594 432.578 34.5033C433.422 35.3472 433.896 36.4917 433.896 37.6851C433.896 38.8785 433.422 40.023 432.578 40.8668C431.734 41.7107 430.589 42.1848 429.396 42.1848Z" fill="#F9F2FF"/>
<path d="M364.711 23.061H230.842C230.25 23.0617 229.665 22.9458 229.118 22.72C228.571 22.4942 228.075 22.1629 227.656 21.745C227.238 21.3271 226.906 20.8308 226.679 20.2845C226.453 19.7382 226.336 19.1527 226.336 18.5613C226.336 17.9699 226.453 17.3844 226.679 16.8381C226.906 16.2918 227.238 15.7955 227.656 15.3776C228.075 14.9597 228.571 14.6284 229.118 14.4026C229.665 14.1768 230.25 14.0609 230.842 14.0616H364.711C365.905 14.0616 367.049 14.5357 367.893 15.3795C368.737 16.2234 369.211 17.3679 369.211 18.5613C369.211 19.7547 368.737 20.8992 367.893 21.7431C367.049 22.5869 365.905 23.061 364.711 23.061Z" fill="#F9F2FF"/>
<path d="M194.653 122.656C190.974 122.656 187.378 121.565 184.319 119.521C181.26 117.477 178.876 114.572 177.468 111.174C176.06 107.775 175.692 104.035 176.409 100.427C177.127 96.8188 178.899 93.5045 181.5 90.9032C184.102 88.3019 187.416 86.5304 191.024 85.8127C194.632 85.095 198.372 85.4634 201.771 86.8712C205.17 88.2791 208.075 90.6632 210.119 93.722C212.163 96.7808 213.254 100.377 213.254 104.056C213.248 108.987 211.287 113.715 207.799 117.202C204.312 120.689 199.584 122.65 194.653 122.656Z" fill="#F7F7F7"/>
<path d="M429.396 119.242H230.842C229.648 119.242 228.504 118.768 227.66 117.924C226.816 117.08 226.342 115.936 226.342 114.743C226.342 113.549 226.816 112.405 227.66 111.561C228.504 110.717 229.648 110.243 230.842 110.243H429.396C430.589 110.243 431.734 110.717 432.578 111.561C433.422 112.405 433.896 113.549 433.896 114.743C433.896 115.936 433.422 117.08 432.578 117.924C431.734 118.768 430.589 119.242 429.396 119.242Z" fill="#F7F7F7"/>
<path d="M364.711 100.118H230.842C229.648 100.118 228.504 99.6444 227.66 98.8005C226.816 97.9566 226.342 96.8121 226.342 95.6187C226.342 94.4253 226.816 93.2808 227.66 92.4369C228.504 91.5931 229.648 91.119 230.842 91.119H364.711C365.905 91.119 367.049 91.5931 367.893 92.4369C368.737 93.2808 369.211 94.4253 369.211 95.6187C369.211 96.8121 368.737 97.9566 367.893 98.8005C367.049 99.6444 365.905 100.118 364.711 100.118Z" fill="#F7F7F7"/>
<path d="M194.653 199.714C190.974 199.714 187.377 198.623 184.318 196.579C181.26 194.535 178.875 191.63 177.467 188.231C176.06 184.833 175.691 181.093 176.409 177.485C177.127 173.876 178.898 170.562 181.5 167.961C184.101 165.359 187.415 163.588 191.024 162.87C194.632 162.152 198.372 162.521 201.771 163.929C205.17 165.336 208.075 167.72 210.119 170.779C212.162 173.838 213.253 177.434 213.253 181.113C213.248 186.045 211.286 190.772 207.799 194.259C204.312 197.747 199.584 199.708 194.653 199.714Z" fill="#F0EFEF"/>
<path d="M429.396 196.3H230.842C230.25 196.3 229.665 196.185 229.118 195.959C228.571 195.733 228.075 195.402 227.656 194.984C227.238 194.566 226.906 194.069 226.679 193.523C226.453 192.977 226.336 192.391 226.336 191.8C226.336 191.209 226.453 190.623 226.679 190.077C226.906 189.531 227.238 189.034 227.656 188.616C228.075 188.198 228.571 187.867 229.118 187.641C229.665 187.415 230.25 187.3 230.842 187.3H429.396C430.589 187.302 431.732 187.776 432.574 188.62C433.417 189.464 433.891 190.608 433.891 191.8C433.891 192.992 433.417 194.136 432.574 194.98C431.732 195.824 430.589 196.298 429.396 196.3Z" fill="#F7F7F7"/>
<path d="M364.711 177.176H230.842C229.648 177.176 228.504 176.702 227.66 175.858C226.816 175.014 226.342 173.87 226.342 172.676C226.342 171.483 226.816 170.338 227.66 169.494C228.504 168.651 229.648 168.177 230.842 168.177H364.711C365.905 168.177 367.049 168.651 367.893 169.494C368.737 170.338 369.211 171.483 369.211 172.676C369.211 173.87 368.737 175.014 367.893 175.858C367.049 176.702 365.905 177.176 364.711 177.176Z" fill="#F7F7F7"/>
<path d="M193.703 33.541C193.241 33.5417 192.792 33.3924 192.423 33.1156L192.4 33.0984L187.579 29.4105C187.355 29.2394 187.168 29.0259 187.027 28.7823C186.886 28.5387 186.794 28.2697 186.758 27.9907C186.721 27.7117 186.739 27.4282 186.812 27.1563C186.884 26.8844 187.01 26.6295 187.181 26.4062C187.352 26.1828 187.566 25.9954 187.81 25.8546C188.053 25.7138 188.322 25.6224 188.601 25.5856C188.88 25.5488 189.164 25.5674 189.436 25.6402C189.708 25.713 189.962 25.8387 190.186 26.01L193.308 28.4046L200.688 18.7778C200.859 18.5547 201.072 18.3674 201.316 18.2266C201.559 18.0859 201.828 17.9945 202.107 17.9577C202.386 17.9209 202.669 17.9393 202.941 18.012C203.212 18.0847 203.467 18.2101 203.69 18.3813L203.691 18.3817L203.645 18.4453L203.692 18.3817C204.142 18.7278 204.437 19.2383 204.511 19.8014C204.586 20.3644 204.433 20.9339 204.088 21.3848L195.409 32.7029C195.208 32.9637 194.95 33.1747 194.654 33.3196C194.359 33.4645 194.034 33.5394 193.705 33.5384L193.703 33.541Z" fill="#FAFAFA"/>
<path d="M621.359 337H494.501C494.331 337 494.168 336.932 494.048 336.812C493.927 336.692 493.86 336.529 493.86 336.359C493.86 336.189 493.927 336.026 494.048 335.906C494.168 335.786 494.331 335.719 494.501 335.719H621.359C621.529 335.719 621.692 335.786 621.812 335.906C621.932 336.026 622 336.189 622 336.359C622 336.529 621.932 336.692 621.812 336.812C621.692 336.932 621.529 337 621.359 337Z" fill="#CCCCCC"/>
</g>
<path d="M31.936 404.064H15.168L12.48 412H1.024L17.28 367.072H29.952L46.208 412H34.624L31.936 404.064ZM29.12 395.616L23.552 379.168L18.048 395.616H29.12ZM62.0995 381.344C63.1235 379.68 64.5955 378.336 66.5155 377.312C68.4355 376.288 70.6328 375.776 73.1075 375.776C76.0515 375.776 78.7182 376.523 81.1075 378.016C83.4968 379.509 85.3742 381.643 86.7395 384.416C88.1475 387.189 88.8515 390.411 88.8515 394.08C88.8515 397.749 88.1475 400.992 86.7395 403.808C85.3742 406.581 83.4968 408.736 81.1075 410.272C78.7182 411.765 76.0515 412.512 73.1075 412.512C70.5902 412.512 68.3928 412.021 66.5155 411.04C64.6382 410.016 63.1662 408.672 62.0995 407.008V412H51.1555V364.64H62.0995V381.344ZM77.7155 394.08C77.7155 391.349 76.9475 389.216 75.4115 387.68C73.9182 386.101 72.0622 385.312 69.8435 385.312C67.6675 385.312 65.8115 386.101 64.2755 387.68C62.7822 389.259 62.0355 391.413 62.0355 394.144C62.0355 396.875 62.7822 399.029 64.2755 400.608C65.8115 402.187 67.6675 402.976 69.8435 402.976C72.0195 402.976 73.8755 402.187 75.4115 400.608C76.9475 398.987 77.7155 396.811 77.7155 394.08ZM128.257 393.568C128.257 394.592 128.193 395.659 128.065 396.768H103.297C103.468 398.987 104.172 400.693 105.409 401.888C106.689 403.04 108.246 403.616 110.081 403.616C112.812 403.616 114.71 402.464 115.777 400.16H127.425C126.828 402.507 125.74 404.619 124.161 406.496C122.625 408.373 120.684 409.845 118.337 410.912C115.99 411.979 113.366 412.512 110.465 412.512C106.966 412.512 103.852 411.765 101.121 410.272C98.3903 408.779 96.257 406.645 94.721 403.872C93.185 401.099 92.417 397.856 92.417 394.144C92.417 390.432 93.1637 387.189 94.657 384.416C96.193 381.643 98.3263 379.509 101.057 378.016C103.788 376.523 106.924 375.776 110.465 375.776C113.921 375.776 116.993 376.501 119.681 377.952C122.369 379.403 124.46 381.472 125.953 384.16C127.489 386.848 128.257 389.984 128.257 393.568ZM117.057 390.688C117.057 388.811 116.417 387.317 115.137 386.208C113.857 385.099 112.257 384.544 110.337 384.544C108.502 384.544 106.945 385.077 105.665 386.144C104.428 387.211 103.66 388.725 103.361 390.688H117.057ZM144.975 382.24C146.255 380.277 147.855 378.741 149.775 377.632C151.695 376.48 153.828 375.904 156.175 375.904V387.488H153.167C150.436 387.488 148.388 388.085 147.023 389.28C145.657 390.432 144.975 392.48 144.975 395.424V412H134.031V376.288H144.975V382.24ZM181.31 402.72V412H175.742C171.774 412 168.68 411.04 166.462 409.12C164.243 407.157 163.134 403.979 163.134 399.584V385.376H158.782V376.288H163.134V367.584H174.078V376.288H181.246V385.376H174.078V399.712C174.078 400.779 174.334 401.547 174.846 402.016C175.358 402.485 176.211 402.72 177.406 402.72H181.31ZM222.67 376.288V412H211.726V407.136C210.616 408.715 209.102 409.995 207.182 410.976C205.304 411.915 203.214 412.384 200.91 412.384C198.179 412.384 195.768 411.787 193.678 410.592C191.587 409.355 189.966 407.584 188.814 405.28C187.662 402.976 187.086 400.267 187.086 397.152V376.288H197.966V395.68C197.966 398.069 198.584 399.925 199.822 401.248C201.059 402.571 202.723 403.232 204.814 403.232C206.947 403.232 208.632 402.571 209.87 401.248C211.107 399.925 211.726 398.069 211.726 395.68V376.288H222.67ZM241.475 382.24C242.755 380.277 244.355 378.741 246.275 377.632C248.195 376.48 250.328 375.904 252.675 375.904V387.488H249.667C246.936 387.488 244.888 388.085 243.523 389.28C242.157 390.432 241.475 392.48 241.475 395.424V412H230.531V376.288H241.475V382.24ZM255.73 394.08C255.73 390.411 256.412 387.189 257.778 384.416C259.186 381.643 261.084 379.509 263.474 378.016C265.863 376.523 268.53 375.776 271.474 375.776C273.991 375.776 276.188 376.288 278.066 377.312C279.986 378.336 281.458 379.68 282.482 381.344V376.288H293.426V412H282.482V406.944C281.415 408.608 279.922 409.952 278.002 410.976C276.124 412 273.927 412.512 271.41 412.512C268.508 412.512 265.863 411.765 263.474 410.272C261.084 408.736 259.186 406.581 257.778 403.808C256.412 400.992 255.73 397.749 255.73 394.08ZM282.482 394.144C282.482 391.413 281.714 389.259 280.178 387.68C278.684 386.101 276.85 385.312 274.674 385.312C272.498 385.312 270.642 386.101 269.106 387.68C267.612 389.216 266.866 391.349 266.866 394.08C266.866 396.811 267.612 398.987 269.106 400.608C270.642 402.187 272.498 402.976 274.674 402.976C276.85 402.976 278.684 402.187 280.178 400.608C281.714 399.029 282.482 396.875 282.482 394.144ZM312.73 394.08C312.73 390.411 313.412 387.189 314.778 384.416C316.186 381.643 318.084 379.509 320.474 378.016C322.863 376.523 325.53 375.776 328.474 375.776C330.82 375.776 332.954 376.267 334.874 377.248C336.836 378.229 338.372 379.552 339.482 381.216V364.64H350.426V412H339.482V406.88C338.458 408.587 336.986 409.952 335.066 410.976C333.188 412 330.991 412.512 328.474 412.512C325.53 412.512 322.863 411.765 320.474 410.272C318.084 408.736 316.186 406.581 314.778 403.808C313.412 400.992 312.73 397.749 312.73 394.08ZM339.482 394.144C339.482 391.413 338.714 389.259 337.178 387.68C335.684 386.101 333.85 385.312 331.674 385.312C329.498 385.312 327.642 386.101 326.106 387.68C324.612 389.216 323.866 391.349 323.866 394.08C323.866 396.811 324.612 398.987 326.106 400.608C327.642 402.187 329.498 402.976 331.674 402.976C333.85 402.976 335.684 402.187 337.178 400.608C338.714 399.029 339.482 396.875 339.482 394.144ZM392.007 393.568C392.007 394.592 391.943 395.659 391.815 396.768H367.047C367.218 398.987 367.922 400.693 369.159 401.888C370.439 403.04 371.996 403.616 373.831 403.616C376.562 403.616 378.46 402.464 379.527 400.16H391.175C390.578 402.507 389.49 404.619 387.911 406.496C386.375 408.373 384.434 409.845 382.087 410.912C379.74 411.979 377.116 412.512 374.215 412.512C370.716 412.512 367.602 411.765 364.871 410.272C362.14 408.779 360.007 406.645 358.471 403.872C356.935 401.099 356.167 397.856 356.167 394.144C356.167 390.432 356.914 387.189 358.407 384.416C359.943 381.643 362.076 379.509 364.807 378.016C367.538 376.523 370.674 375.776 374.215 375.776C377.671 375.776 380.743 376.501 383.431 377.952C386.119 379.403 388.21 381.472 389.703 384.16C391.239 386.848 392.007 389.984 392.007 393.568ZM380.807 390.688C380.807 388.811 380.167 387.317 378.887 386.208C377.607 385.099 376.007 384.544 374.087 384.544C372.252 384.544 370.695 385.077 369.415 386.144C368.178 387.211 367.41 388.725 367.111 390.688H380.807ZM409.167 394.144C409.167 390.432 409.914 387.189 411.407 384.416C412.943 381.643 415.055 379.509 417.743 378.016C420.474 376.523 423.588 375.776 427.087 375.776C431.567 375.776 435.3 376.949 438.287 379.296C441.316 381.643 443.3 384.949 444.239 389.216H432.591C431.61 386.485 429.711 385.12 426.895 385.12C424.89 385.12 423.29 385.909 422.095 387.488C420.9 389.024 420.303 391.243 420.303 394.144C420.303 397.045 420.9 399.285 422.095 400.864C423.29 402.4 424.89 403.168 426.895 403.168C429.711 403.168 431.61 401.803 432.591 399.072H444.239C443.3 403.253 441.316 406.539 438.287 408.928C435.258 411.317 431.524 412.512 427.087 412.512C423.588 412.512 420.474 411.765 417.743 410.272C415.055 408.779 412.943 406.645 411.407 403.872C409.914 401.099 409.167 397.856 409.167 394.144ZM472.045 375.904C476.141 375.904 479.426 377.269 481.901 380C484.376 382.688 485.613 386.4 485.613 391.136V412H474.733V392.608C474.733 390.219 474.114 388.363 472.877 387.04C471.64 385.717 469.976 385.056 467.885 385.056C465.794 385.056 464.13 385.717 462.893 387.04C461.656 388.363 461.037 390.219 461.037 392.608V412H450.093V364.64H461.037V381.088C462.146 379.509 463.661 378.251 465.581 377.312C467.501 376.373 469.656 375.904 472.045 375.904ZM491.042 394.08C491.042 390.411 491.725 387.189 493.09 384.416C494.498 381.643 496.397 379.509 498.786 378.016C501.175 376.523 503.842 375.776 506.786 375.776C509.303 375.776 511.501 376.288 513.378 377.312C515.298 378.336 516.77 379.68 517.794 381.344V376.288H528.738V412H517.794V406.944C516.727 408.608 515.234 409.952 513.314 410.976C511.437 412 509.239 412.512 506.722 412.512C503.821 412.512 501.175 411.765 498.786 410.272C496.397 408.736 494.498 406.581 493.09 403.808C491.725 400.992 491.042 397.749 491.042 394.08ZM517.794 394.144C517.794 391.413 517.026 389.259 515.49 387.68C513.997 386.101 512.162 385.312 509.986 385.312C507.81 385.312 505.954 386.101 504.418 387.68C502.925 389.216 502.178 391.349 502.178 394.08C502.178 396.811 502.925 398.987 504.418 400.608C505.954 402.187 507.81 402.976 509.986 402.976C512.162 402.976 513.997 402.187 515.49 400.608C517.026 399.029 517.794 396.875 517.794 394.144ZM582.224 375.904C586.661 375.904 590.181 377.248 592.784 379.936C595.429 382.624 596.752 386.357 596.752 391.136V412H585.872V392.608C585.872 390.304 585.253 388.533 584.016 387.296C582.821 386.016 581.157 385.376 579.024 385.376C576.89 385.376 575.205 386.016 573.968 387.296C572.773 388.533 572.176 390.304 572.176 392.608V412H561.296V392.608C561.296 390.304 560.677 388.533 559.44 387.296C558.245 386.016 556.581 385.376 554.448 385.376C552.314 385.376 550.629 386.016 549.392 387.296C548.197 388.533 547.6 390.304 547.6 392.608V412H536.656V376.288H547.6V380.768C548.709 379.275 550.16 378.101 551.952 377.248C553.744 376.352 555.77 375.904 558.032 375.904C560.72 375.904 563.109 376.48 565.2 377.632C567.333 378.784 568.997 380.427 570.192 382.56C571.429 380.597 573.114 378.997 575.248 377.76C577.381 376.523 579.706 375.904 582.224 375.904ZM602.23 394.08C602.23 390.411 602.912 387.189 604.278 384.416C605.686 381.643 607.584 379.509 609.974 378.016C612.363 376.523 615.03 375.776 617.974 375.776C620.491 375.776 622.688 376.288 624.566 377.312C626.486 378.336 627.958 379.68 628.982 381.344V376.288H639.926V412H628.982V406.944C627.915 408.608 626.422 409.952 624.502 410.976C622.624 412 620.427 412.512 617.91 412.512C615.008 412.512 612.363 411.765 609.974 410.272C607.584 408.736 605.686 406.581 604.278 403.808C602.912 400.992 602.23 397.749 602.23 394.08ZM628.982 394.144C628.982 391.413 628.214 389.259 626.678 387.68C625.184 386.101 623.35 385.312 621.174 385.312C618.998 385.312 617.142 386.101 615.606 387.68C614.112 389.216 613.366 391.349 613.366 394.08C613.366 396.811 614.112 398.987 615.606 400.608C617.142 402.187 618.998 402.976 621.174 402.976C623.35 402.976 625.184 402.187 626.678 400.608C628.214 399.029 628.982 396.875 628.982 394.144ZM645.667 394.08C645.667 390.411 646.35 387.189 647.715 384.416C649.123 381.643 651.022 379.509 653.411 378.016C655.8 376.523 658.467 375.776 661.411 375.776C663.758 375.776 665.891 376.267 667.811 377.248C669.774 378.229 671.31 379.552 672.419 381.216V364.64H683.363V412H672.419V406.88C671.395 408.587 669.923 409.952 668.003 410.976C666.126 412 663.928 412.512 661.411 412.512C658.467 412.512 655.8 411.765 653.411 410.272C651.022 408.736 649.123 406.581 647.715 403.808C646.35 400.992 645.667 397.749 645.667 394.08ZM672.419 394.144C672.419 391.413 671.651 389.259 670.115 387.68C668.622 386.101 666.787 385.312 664.611 385.312C662.435 385.312 660.579 386.101 659.043 387.68C657.55 389.216 656.803 391.349 656.803 394.08C656.803 396.811 657.55 398.987 659.043 400.608C660.579 402.187 662.435 402.976 664.611 402.976C666.787 402.976 668.622 402.187 670.115 400.608C671.651 399.029 672.419 396.875 672.419 394.144ZM707.537 412.512C704.038 412.512 700.881 411.765 698.065 410.272C695.291 408.779 693.094 406.645 691.473 403.872C689.894 401.099 689.105 397.856 689.105 394.144C689.105 390.475 689.915 387.253 691.536 384.48C693.158 381.664 695.377 379.509 698.193 378.016C701.009 376.523 704.166 375.776 707.665 375.776C711.163 375.776 714.321 376.523 717.137 378.016C719.953 379.509 722.171 381.664 723.793 384.48C725.414 387.253 726.225 390.475 726.225 394.144C726.225 397.813 725.393 401.056 723.729 403.872C722.107 406.645 719.867 408.779 717.009 410.272C714.193 411.765 711.035 412.512 707.537 412.512ZM707.537 403.04C709.627 403.04 711.398 402.272 712.849 400.736C714.342 399.2 715.089 397.003 715.089 394.144C715.089 391.285 714.363 389.088 712.913 387.552C711.505 386.016 709.755 385.248 707.665 385.248C705.531 385.248 703.761 386.016 702.353 387.552C700.945 389.045 700.241 391.243 700.241 394.144C700.241 397.003 700.923 399.2 702.289 400.736C703.697 402.272 705.446 403.04 707.537 403.04ZM746.559 412.512C743.444 412.512 740.671 411.979 738.239 410.912C735.807 409.845 733.887 408.395 732.479 406.56C731.071 404.683 730.281 402.592 730.111 400.288H740.927C741.055 401.525 741.631 402.528 742.655 403.296C743.679 404.064 744.937 404.448 746.431 404.448C747.796 404.448 748.841 404.192 749.567 403.68C750.335 403.125 750.719 402.421 750.719 401.568C750.719 400.544 750.185 399.797 749.119 399.328C748.052 398.816 746.324 398.261 743.935 397.664C741.375 397.067 739.241 396.448 737.535 395.808C735.828 395.125 734.356 394.08 733.119 392.672C731.881 391.221 731.263 389.28 731.263 386.848C731.263 384.8 731.817 382.944 732.927 381.28C734.079 379.573 735.743 378.229 737.919 377.248C740.137 376.267 742.761 375.776 745.791 375.776C750.271 375.776 753.791 376.885 756.351 379.104C758.953 381.323 760.447 384.267 760.831 387.936H750.719C750.548 386.699 749.993 385.717 749.055 384.992C748.159 384.267 746.964 383.904 745.471 383.904C744.191 383.904 743.209 384.16 742.527 384.672C741.844 385.141 741.503 385.803 741.503 386.656C741.503 387.68 742.036 388.448 743.103 388.96C744.212 389.472 745.919 389.984 748.223 390.496C750.868 391.179 753.023 391.861 754.687 392.544C756.351 393.184 757.801 394.251 759.039 395.744C760.319 397.195 760.98 399.157 761.023 401.632C761.023 403.723 760.425 405.6 759.231 407.264C758.079 408.885 756.393 410.165 754.175 411.104C751.999 412.043 749.46 412.512 746.559 412.512Z" fill="#E8E8E9"/>
<path d="M160.336 487L157.77 479.863H147.943L145.43 487H141L150.615 461.195H155.186L164.801 487H160.336ZM156.662 476.242L154.254 469.246C154.078 468.777 153.832 468.039 153.516 467.031C153.211 466.023 153 465.285 152.883 464.816C152.566 466.258 152.104 467.834 151.494 469.545L149.174 476.242H156.662ZM175.594 487.352C172.652 487.352 170.414 486.496 168.879 484.785C167.355 483.062 166.594 480.596 166.594 477.385C166.594 474.115 167.391 471.602 168.984 469.844C170.59 468.086 172.904 467.207 175.928 467.207C177.979 467.207 179.824 467.588 181.465 468.35L180.217 471.672C178.471 470.992 177.029 470.652 175.893 470.652C172.529 470.652 170.848 472.885 170.848 477.35C170.848 479.529 171.264 481.17 172.096 482.271C172.939 483.361 174.17 483.906 175.787 483.906C177.627 483.906 179.367 483.449 181.008 482.535V486.139C180.27 486.572 179.479 486.883 178.635 487.07C177.803 487.258 176.789 487.352 175.594 487.352ZM194.068 487.352C191.045 487.352 188.678 486.473 186.967 484.715C185.268 482.945 184.418 480.514 184.418 477.42C184.418 474.244 185.209 471.748 186.791 469.932C188.373 468.115 190.547 467.207 193.312 467.207C195.879 467.207 197.906 467.986 199.395 469.545C200.883 471.104 201.627 473.248 201.627 475.979V478.211H188.672C188.73 480.098 189.24 481.551 190.201 482.57C191.162 483.578 192.516 484.082 194.262 484.082C195.41 484.082 196.477 483.977 197.461 483.766C198.457 483.543 199.523 483.18 200.66 482.676V486.033C199.652 486.514 198.633 486.854 197.602 487.053C196.57 487.252 195.393 487.352 194.068 487.352ZM193.312 470.336C192 470.336 190.945 470.752 190.148 471.584C189.363 472.416 188.895 473.629 188.742 475.223H197.566C197.543 473.617 197.156 472.404 196.406 471.584C195.656 470.752 194.625 470.336 193.312 470.336ZM219.381 481.463C219.381 483.361 218.689 484.82 217.307 485.84C215.924 486.848 213.943 487.352 211.365 487.352C208.775 487.352 206.695 486.959 205.125 486.174V482.605C207.41 483.66 209.537 484.188 211.506 484.188C214.049 484.188 215.32 483.42 215.32 481.885C215.32 481.393 215.18 480.982 214.898 480.654C214.617 480.326 214.154 479.986 213.51 479.635C212.865 479.283 211.969 478.885 210.82 478.439C208.582 477.572 207.064 476.705 206.268 475.838C205.482 474.971 205.09 473.846 205.09 472.463C205.09 470.799 205.758 469.51 207.094 468.596C208.441 467.67 210.27 467.207 212.578 467.207C214.863 467.207 217.025 467.67 219.064 468.596L217.729 471.707C215.631 470.84 213.867 470.406 212.438 470.406C210.258 470.406 209.168 471.027 209.168 472.27C209.168 472.879 209.449 473.395 210.012 473.816C210.586 474.238 211.828 474.818 213.738 475.557C215.344 476.178 216.51 476.746 217.236 477.262C217.963 477.777 218.502 478.375 218.854 479.055C219.205 479.723 219.381 480.525 219.381 481.463ZM236.924 481.463C236.924 483.361 236.232 484.82 234.85 485.84C233.467 486.848 231.486 487.352 228.908 487.352C226.318 487.352 224.238 486.959 222.668 486.174V482.605C224.953 483.66 227.08 484.188 229.049 484.188C231.592 484.188 232.863 483.42 232.863 481.885C232.863 481.393 232.723 480.982 232.441 480.654C232.16 480.326 231.697 479.986 231.053 479.635C230.408 479.283 229.512 478.885 228.363 478.439C226.125 477.572 224.607 476.705 223.811 475.838C223.025 474.971 222.633 473.846 222.633 472.463C222.633 470.799 223.301 469.51 224.637 468.596C225.984 467.67 227.812 467.207 230.121 467.207C232.406 467.207 234.568 467.67 236.607 468.596L235.271 471.707C233.174 470.84 231.41 470.406 229.98 470.406C227.801 470.406 226.711 471.027 226.711 472.27C226.711 472.879 226.992 473.395 227.555 473.816C228.129 474.238 229.371 474.818 231.281 475.557C232.887 476.178 234.053 476.746 234.779 477.262C235.506 477.777 236.045 478.375 236.396 479.055C236.748 479.723 236.924 480.525 236.924 481.463ZM258.65 477.244C258.65 480.42 257.836 482.898 256.207 484.68C254.578 486.461 252.311 487.352 249.404 487.352C247.588 487.352 245.982 486.941 244.588 486.121C243.193 485.301 242.121 484.123 241.371 482.588C240.621 481.053 240.246 479.271 240.246 477.244C240.246 474.092 241.055 471.631 242.672 469.861C244.289 468.092 246.568 467.207 249.51 467.207C252.322 467.207 254.549 468.115 256.189 469.932C257.83 471.736 258.65 474.174 258.65 477.244ZM244.5 477.244C244.5 481.732 246.158 483.977 249.475 483.977C252.756 483.977 254.396 481.732 254.396 477.244C254.396 472.803 252.744 470.582 249.439 470.582C247.705 470.582 246.445 471.156 245.66 472.305C244.887 473.453 244.5 475.1 244.5 477.244ZM276.475 481.463C276.475 483.361 275.783 484.82 274.4 485.84C273.018 486.848 271.037 487.352 268.459 487.352C265.869 487.352 263.789 486.959 262.219 486.174V482.605C264.504 483.66 266.631 484.188 268.6 484.188C271.143 484.188 272.414 483.42 272.414 481.885C272.414 481.393 272.273 480.982 271.992 480.654C271.711 480.326 271.248 479.986 270.604 479.635C269.959 479.283 269.062 478.885 267.914 478.439C265.676 477.572 264.158 476.705 263.361 475.838C262.576 474.971 262.184 473.846 262.184 472.463C262.184 470.799 262.852 469.51 264.188 468.596C265.535 467.67 267.363 467.207 269.672 467.207C271.957 467.207 274.119 467.67 276.158 468.596L274.822 471.707C272.725 470.84 270.961 470.406 269.531 470.406C267.352 470.406 266.262 471.027 266.262 472.27C266.262 472.879 266.543 473.395 267.105 473.816C267.68 474.238 268.922 474.818 270.832 475.557C272.438 476.178 273.604 476.746 274.33 477.262C275.057 477.777 275.596 478.375 275.947 479.055C276.299 479.723 276.475 480.525 276.475 481.463ZM285.246 483.221C284.684 485.4 283.652 488.207 282.152 491.641H279.111C279.92 488.477 280.523 485.535 280.922 482.816H284.982L285.246 483.221ZM304.582 473.254H307.5C309.457 473.254 310.875 472.891 311.754 472.164C312.633 471.438 313.072 470.359 313.072 468.93C313.072 467.477 312.598 466.434 311.648 465.801C310.699 465.168 309.27 464.852 307.359 464.852H304.582V473.254ZM304.582 476.734V487H300.381V461.301H307.641C310.957 461.301 313.412 461.922 315.006 463.164C316.6 464.406 317.396 466.281 317.396 468.789C317.396 471.988 315.732 474.268 312.404 475.627L319.664 487H314.883L308.73 476.734H304.582ZM331.459 487.352C328.436 487.352 326.068 486.473 324.357 484.715C322.658 482.945 321.809 480.514 321.809 477.42C321.809 474.244 322.6 471.748 324.182 469.932C325.764 468.115 327.938 467.207 330.703 467.207C333.27 467.207 335.297 467.986 336.785 469.545C338.273 471.104 339.018 473.248 339.018 475.979V478.211H326.062C326.121 480.098 326.631 481.551 327.592 482.57C328.553 483.578 329.906 484.082 331.652 484.082C332.801 484.082 333.867 483.977 334.852 483.766C335.848 483.543 336.914 483.18 338.051 482.676V486.033C337.043 486.514 336.023 486.854 334.992 487.053C333.961 487.252 332.783 487.352 331.459 487.352ZM330.703 470.336C329.391 470.336 328.336 470.752 327.539 471.584C326.754 472.416 326.285 473.629 326.133 475.223H334.957C334.934 473.617 334.547 472.404 333.797 471.584C333.047 470.752 332.016 470.336 330.703 470.336ZM356.771 481.463C356.771 483.361 356.08 484.82 354.697 485.84C353.314 486.848 351.334 487.352 348.756 487.352C346.166 487.352 344.086 486.959 342.516 486.174V482.605C344.801 483.66 346.928 484.188 348.896 484.188C351.439 484.188 352.711 483.42 352.711 481.885C352.711 481.393 352.57 480.982 352.289 480.654C352.008 480.326 351.545 479.986 350.9 479.635C350.256 479.283 349.359 478.885 348.211 478.439C345.973 477.572 344.455 476.705 343.658 475.838C342.873 474.971 342.48 473.846 342.48 472.463C342.48 470.799 343.148 469.51 344.484 468.596C345.832 467.67 347.66 467.207 349.969 467.207C352.254 467.207 354.416 467.67 356.455 468.596L355.119 471.707C353.021 470.84 351.258 470.406 349.828 470.406C347.648 470.406 346.559 471.027 346.559 472.27C346.559 472.879 346.84 473.395 347.402 473.816C347.977 474.238 349.219 474.818 351.129 475.557C352.734 476.178 353.9 476.746 354.627 477.262C355.354 477.777 355.893 478.375 356.244 479.055C356.596 479.723 356.771 480.525 356.771 481.463ZM369.744 487.352C366.721 487.352 364.354 486.473 362.643 484.715C360.943 482.945 360.094 480.514 360.094 477.42C360.094 474.244 360.885 471.748 362.467 469.932C364.049 468.115 366.223 467.207 368.988 467.207C371.555 467.207 373.582 467.986 375.07 469.545C376.559 471.104 377.303 473.248 377.303 475.979V478.211H364.348C364.406 480.098 364.916 481.551 365.877 482.57C366.838 483.578 368.191 484.082 369.938 484.082C371.086 484.082 372.152 483.977 373.137 483.766C374.133 483.543 375.199 483.18 376.336 482.676V486.033C375.328 486.514 374.309 486.854 373.277 487.053C372.246 487.252 371.068 487.352 369.744 487.352ZM368.988 470.336C367.676 470.336 366.621 470.752 365.824 471.584C365.039 472.416 364.57 473.629 364.418 475.223H373.242C373.219 473.617 372.832 472.404 372.082 471.584C371.332 470.752 370.301 470.336 368.988 470.336ZM389.238 484.012C390.246 484.012 391.254 483.854 392.262 483.537V486.648C391.805 486.848 391.213 487.012 390.486 487.141C389.771 487.281 389.027 487.352 388.254 487.352C384.34 487.352 382.383 485.289 382.383 481.164V470.688H379.729V468.859L382.576 467.348L383.982 463.234H386.531V467.559H392.068V470.688H386.531V481.094C386.531 482.09 386.777 482.828 387.27 483.309C387.773 483.777 388.43 484.012 389.238 484.012ZM412.072 487.352C409.646 487.352 407.754 486.473 406.395 484.715C405.035 482.957 404.355 480.49 404.355 477.314C404.355 474.127 405.041 471.648 406.412 469.879C407.795 468.098 409.705 467.207 412.143 467.207C414.697 467.207 416.643 468.15 417.979 470.037H418.189C417.99 468.643 417.891 467.541 417.891 466.732V459.648H422.039V487H418.805L418.084 484.451H417.891C416.566 486.385 414.627 487.352 412.072 487.352ZM413.18 484.012C414.879 484.012 416.115 483.537 416.889 482.588C417.662 481.627 418.061 480.074 418.084 477.93V477.35C418.084 474.9 417.686 473.16 416.889 472.129C416.092 471.098 414.844 470.582 413.145 470.582C411.691 470.582 410.572 471.174 409.787 472.357C409.002 473.529 408.609 475.205 408.609 477.385C408.609 479.541 408.99 481.188 409.752 482.324C410.514 483.449 411.656 484.012 413.18 484.012ZM436.436 487.352C433.412 487.352 431.045 486.473 429.334 484.715C427.635 482.945 426.785 480.514 426.785 477.42C426.785 474.244 427.576 471.748 429.158 469.932C430.74 468.115 432.914 467.207 435.68 467.207C438.246 467.207 440.273 467.986 441.762 469.545C443.25 471.104 443.994 473.248 443.994 475.979V478.211H431.039C431.098 480.098 431.607 481.551 432.568 482.57C433.529 483.578 434.883 484.082 436.629 484.082C437.777 484.082 438.844 483.977 439.828 483.766C440.824 483.543 441.891 483.18 443.027 482.676V486.033C442.02 486.514 441 486.854 439.969 487.053C438.938 487.252 437.76 487.352 436.436 487.352ZM435.68 470.336C434.367 470.336 433.312 470.752 432.516 471.584C431.73 472.416 431.262 473.629 431.109 475.223H439.934C439.91 473.617 439.523 472.404 438.773 471.584C438.023 470.752 436.992 470.336 435.68 470.336ZM471.1 481.463C471.1 483.361 470.408 484.82 469.025 485.84C467.643 486.848 465.662 487.352 463.084 487.352C460.494 487.352 458.414 486.959 456.844 486.174V482.605C459.129 483.66 461.256 484.188 463.225 484.188C465.768 484.188 467.039 483.42 467.039 481.885C467.039 481.393 466.898 480.982 466.617 480.654C466.336 480.326 465.873 479.986 465.229 479.635C464.584 479.283 463.688 478.885 462.539 478.439C460.301 477.572 458.783 476.705 457.986 475.838C457.201 474.971 456.809 473.846 456.809 472.463C456.809 470.799 457.477 469.51 458.812 468.596C460.16 467.67 461.988 467.207 464.297 467.207C466.582 467.207 468.744 467.67 470.783 468.596L469.447 471.707C467.35 470.84 465.586 470.406 464.156 470.406C461.977 470.406 460.887 471.027 460.887 472.27C460.887 472.879 461.168 473.395 461.73 473.816C462.305 474.238 463.547 474.818 465.457 475.557C467.062 476.178 468.229 476.746 468.955 477.262C469.682 477.777 470.221 478.375 470.572 479.055C470.924 479.723 471.1 480.525 471.1 481.463ZM484.072 487.352C481.049 487.352 478.682 486.473 476.971 484.715C475.271 482.945 474.422 480.514 474.422 477.42C474.422 474.244 475.213 471.748 476.795 469.932C478.377 468.115 480.551 467.207 483.316 467.207C485.883 467.207 487.91 467.986 489.398 469.545C490.887 471.104 491.631 473.248 491.631 475.979V478.211H478.676C478.734 480.098 479.244 481.551 480.205 482.57C481.166 483.578 482.52 484.082 484.266 484.082C485.414 484.082 486.48 483.977 487.465 483.766C488.461 483.543 489.527 483.18 490.664 482.676V486.033C489.656 486.514 488.637 486.854 487.605 487.053C486.574 487.252 485.396 487.352 484.072 487.352ZM483.316 470.336C482.004 470.336 480.949 470.752 480.152 471.584C479.367 472.416 478.898 473.629 478.746 475.223H487.57C487.547 473.617 487.16 472.404 486.41 471.584C485.66 470.752 484.629 470.336 483.316 470.336ZM513.428 487H509.279V475.047C509.279 473.547 508.975 472.428 508.365 471.689C507.768 470.951 506.812 470.582 505.5 470.582C503.754 470.582 502.477 471.098 501.668 472.129C500.859 473.16 500.455 474.889 500.455 477.314V487H496.324V467.559H499.559L500.139 470.107H500.35C500.936 469.182 501.768 468.467 502.846 467.963C503.924 467.459 505.119 467.207 506.432 467.207C511.096 467.207 513.428 469.58 513.428 474.326V487ZM536.279 487H532.131V475.047C532.131 473.547 531.826 472.428 531.217 471.689C530.619 470.951 529.664 470.582 528.352 470.582C526.617 470.582 525.34 471.104 524.52 472.146C523.711 473.178 523.307 474.912 523.307 477.35V487H519.176V459.648H523.307V466.592C523.307 467.705 523.236 468.895 523.096 470.16H523.359C523.922 469.223 524.701 468.496 525.697 467.98C526.705 467.465 527.877 467.207 529.213 467.207C533.924 467.207 536.279 469.58 536.279 474.326V487ZM554.191 487L553.365 484.293H553.225C552.287 485.477 551.344 486.285 550.395 486.719C549.445 487.141 548.227 487.352 546.738 487.352C544.828 487.352 543.334 486.836 542.256 485.805C541.189 484.773 540.656 483.314 540.656 481.428C540.656 479.424 541.4 477.912 542.889 476.893C544.377 475.873 546.645 475.316 549.691 475.223L553.049 475.117V474.08C553.049 472.838 552.756 471.912 552.17 471.303C551.596 470.682 550.699 470.371 549.48 470.371C548.484 470.371 547.529 470.518 546.615 470.811C545.701 471.104 544.822 471.449 543.979 471.848L542.643 468.895C543.697 468.344 544.852 467.928 546.105 467.646C547.359 467.354 548.543 467.207 549.656 467.207C552.129 467.207 553.992 467.746 555.246 468.824C556.512 469.902 557.145 471.596 557.145 473.904V487H554.191ZM548.039 484.188C549.539 484.188 550.74 483.771 551.643 482.939C552.557 482.096 553.014 480.918 553.014 479.406V477.719L550.518 477.824C548.572 477.895 547.154 478.223 546.264 478.809C545.385 479.383 544.945 480.268 544.945 481.463C544.945 482.33 545.203 483.004 545.719 483.484C546.234 483.953 547.008 484.188 548.039 484.188Z" fill="#FAFAFA"/>
<defs>
<clipPath id="clip0">
<rect width="479" height="337" fill="white" transform="translate(143)"/>
</clipPath>
</defs>
</svg>
