<svg width="392" height="93" viewBox="0 0 392 93" fill="none" xmlns="http://www.w3.org/2000/svg">
<path d="M71.0435 1.62523C67.6542 1.60246 64.3947 2.93503 61.9817 5.32989C59.5688 7.72475 58.2 10.9858 58.1764 14.3959V52.0321C58.18 54.9612 57.2815 57.8194 55.6046 60.2137C52.5823 71.5303 42.1381 79.6605 16.8799 81.4312C22.5677 86.7524 29.6762 90.2866 37.3325 91.5998C44.9888 92.913 52.8597 91.9482 59.9785 88.8236C67.0974 85.6991 73.1545 80.5509 77.4059 74.0112C81.6574 67.4716 83.9182 59.8251 83.9107 52.0107V14.3959C83.8871 10.9858 82.5183 7.72475 80.1054 5.32989C77.6924 2.93503 74.4329 1.60246 71.0435 1.62523Z" fill="url(#paint0_linear)"/>
<path d="M46.6865 66.0003C45.8077 66.1671 44.9155 66.2516 44.0212 66.2526C40.2678 66.2515 36.6685 64.7505 34.0148 62.0797C31.3611 59.409 29.8703 55.7871 29.8703 52.0107V14.3958C29.8703 10.9623 28.5147 7.66948 26.1016 5.24163C23.6886 2.81378 20.4158 1.44983 17.0032 1.44983C13.5906 1.44983 10.3178 2.81378 7.90471 5.24163C5.49165 7.66948 4.13601 10.9623 4.13601 14.3958V52.0321C4.13055 57.5525 5.26071 63.0143 7.45539 68.0738C9.65007 73.1334 12.8618 77.6812 16.8884 81.4311C42.1466 79.6605 52.5951 71.5302 55.6132 60.2137C53.4967 63.235 50.2956 65.31 46.6865 66.0003Z" fill="url(#paint1_linear)"/>
<path d="M116.472 88.1458C115.309 88.1565 114.155 87.9363 113.077 87.4979C111.998 87.0594 111.016 86.4113 110.187 85.5905C109.358 84.7698 108.698 83.7926 108.245 82.7149C107.791 81.6372 107.554 80.4801 107.545 79.3098V53.2767C107.548 51.2492 106.926 49.2708 105.764 47.6141C103.685 39.7747 96.4591 34.1549 78.9756 32.9317C82.9116 29.2501 87.8303 26.8046 93.128 25.8956C98.4256 24.9865 103.872 25.6533 108.798 27.8141C113.725 29.9749 117.917 33.5358 120.861 38.0598C123.804 42.5837 125.371 47.8738 125.369 53.2809V79.3141C125.35 81.6712 124.402 83.9246 122.735 85.5801C121.067 87.2357 118.815 88.1583 116.472 88.1458Z" fill="url(#paint2_linear)"/>
<path d="M99.6046 43.5939C98.9977 43.4788 98.3815 43.4201 97.764 43.4185C96.4783 43.4157 95.2046 43.6681 94.016 44.1612C92.8274 44.6542 91.7471 45.3784 90.837 46.2921C89.9268 47.2058 89.2048 48.2911 88.7121 49.486C88.2195 50.6808 87.9659 51.9617 87.9659 53.2553V79.2884C87.81 81.5578 86.804 83.6831 85.151 85.2352C83.4981 86.7872 81.3214 87.6504 79.0605 87.6504C76.7995 87.6504 74.6228 86.7872 72.9699 85.2352C71.317 83.6831 70.311 81.5578 70.155 79.2884V53.2767C70.1514 49.4568 70.9331 45.6775 72.451 42.1763C73.969 38.6751 76.1903 35.5276 78.9754 32.9317C96.459 34.1592 103.685 39.7747 105.777 47.6184C104.318 45.5197 102.104 44.076 99.6046 43.5939Z" fill="url(#paint3_linear)"/>
<path d="M169.981 72.8561C170.562 72.4277 171.262 72.1929 171.983 72.1846C172.229 72.2075 172.466 72.2878 172.676 72.4193C172.885 72.5507 173.061 72.7296 173.19 72.9416L174.189 74.323L177.165 78.5571C177.299 78.7456 177.41 78.9495 177.496 79.1644C177.574 79.3426 177.618 79.5343 177.624 79.729C177.626 80.1709 177.462 80.5973 177.165 80.9222C176.803 81.323 176.398 81.6817 175.957 81.9914C173.602 83.7224 171.029 85.1317 168.306 86.1827C165.425 87.2732 162.368 87.8142 159.29 87.778C156.86 87.7832 154.442 87.4522 152.102 86.7943C145.256 84.8553 139.41 80.347 135.77 74.199C133.293 69.9849 131.985 65.1785 131.985 60.2822C131.985 55.3859 133.293 50.5794 135.77 46.3653C139.4 40.2169 145.244 35.7121 152.089 33.7871C154.429 33.1292 156.848 32.7982 159.277 32.8034C162.251 32.7819 165.207 33.2589 168.025 34.2148C170.655 35.1007 173.128 36.3998 175.354 38.064L175.316 38.0212C175.674 38.3884 176.056 38.7313 176.459 39.0476C176.653 39.2143 176.805 39.4248 176.902 39.662C177 39.8991 177.04 40.1561 177.02 40.4119C177.02 40.5787 177.02 40.7755 177.02 40.9979C177.001 41.2245 176.922 41.4417 176.791 41.6266L173.39 46.8657C172.833 47.7211 172.225 48.1231 171.558 48.1231C170.965 48.0708 170.406 47.8193 169.972 47.4089C168.478 46.1665 166.792 45.1771 164.982 44.4792C163.127 43.7326 161.147 43.3494 159.15 43.3501C157.041 43.3376 154.956 43.8025 153.05 44.7102C151.159 45.6092 149.455 46.8618 148.03 48.4011C146.575 49.9769 145.422 51.8096 144.629 53.807C143.39 56.8698 143.052 60.226 143.655 63.4765C144.258 66.7269 145.777 69.7347 148.03 72.1418C149.451 73.6496 151.148 74.8666 153.029 75.7258C154.949 76.6081 157.038 77.0591 159.15 77.0474C161.258 77.1005 163.351 76.6782 165.275 75.8114C166.953 75.0141 168.532 74.0223 169.981 72.8561Z" fill="#fff"/>
<path d="M172.769 60.3035C172.758 56.6781 173.462 53.0864 174.841 49.737C176.22 46.3876 178.247 43.3473 180.803 40.7925C182.457 39.1364 184.314 37.6992 186.329 36.5157C188.375 35.3205 190.563 34.3921 192.842 33.7528C197.589 32.4356 202.602 32.4356 207.35 33.7528C213.128 35.3481 218.223 38.8123 221.85 43.6108C225.477 48.4092 227.433 54.2752 227.418 60.3035C227.433 65.1898 226.14 69.99 223.673 74.199C222.48 76.2254 221.039 78.0933 219.384 79.7589C217.732 81.4236 215.875 82.8681 213.858 84.0571C211.814 85.2562 209.625 86.1862 207.345 86.8242C202.597 88.1357 197.586 88.1357 192.837 86.8242C190.559 86.1818 188.371 85.252 186.325 84.0571C184.307 82.8702 182.449 81.4254 180.799 79.7589C179.145 78.0932 177.706 76.2253 176.514 74.199C174.05 69.9889 172.757 65.1894 172.769 60.3035ZM184.519 60.3035C184.506 62.4754 184.901 64.6302 185.683 66.6546C186.422 68.5891 187.526 70.3611 188.935 71.8723C190.333 73.3622 192.01 74.5585 193.87 75.3922C195.83 76.2655 197.954 76.7031 200.098 76.6752C202.201 76.7005 204.285 76.2626 206.202 75.3922C208.038 74.5487 209.689 73.3447 211.056 71.851C212.44 70.3331 213.521 68.5617 214.24 66.6332C215.77 62.5465 215.77 58.0391 214.24 53.9524C213.514 52.0017 212.434 50.2035 211.056 48.6491C209.691 47.1267 208.041 45.8887 206.202 45.0052C204.298 44.0844 202.21 43.612 200.098 43.6238C197.947 43.6039 195.819 44.0701 193.87 44.9881C192.005 45.8679 190.329 47.1057 188.935 48.632C187.532 50.18 186.429 51.9787 185.683 53.9353C184.901 55.9654 184.505 58.1259 184.519 60.3035Z" fill="#fff"/>
<path d="M225.59 35.2412C225.823 34.8702 226.156 34.5735 226.55 34.3858C226.824 34.1387 227.182 34.0097 227.549 34.0266C227.974 34.0266 228.4 34.0266 228.799 34.0266H233.007C233.348 34.0016 233.689 34.0611 234.001 34.1998C234.313 34.3385 234.586 34.5522 234.797 34.8221C235.18 35.3474 235.449 35.9476 235.588 36.5841L236.047 41.0278C236.738 40.0153 237.527 39.0741 238.402 38.2179C239.393 37.2512 240.506 36.4201 241.713 35.7459C243.092 34.9773 244.562 34.3854 246.087 33.9838C247.892 33.5189 249.75 33.2946 251.613 33.3166C254.623 33.262 257.609 33.8691 260.361 35.0958C262.844 36.2274 265.048 37.8949 266.818 39.9799C268.607 42.1163 269.96 44.5871 270.797 47.2506C271.718 50.1638 272.175 53.205 272.153 56.2619V84.2539C272.214 85.0718 271.96 85.882 271.443 86.5163C271.175 86.7789 270.854 86.9817 270.503 87.1114C270.151 87.2411 269.776 87.2948 269.403 87.269H263.082C261.971 87.269 261.228 87.0595 260.854 86.6403C260.48 86.2212 260.293 85.4813 260.293 84.4206V56.4886C260.294 55.0101 260.039 53.5428 259.541 52.1518C259.054 50.7611 258.313 49.4744 257.356 48.3583C256.37 47.2216 255.156 46.3077 253.794 45.6767C252.4 45.0514 250.896 44.7092 249.37 44.6695C247.844 44.6299 246.326 44.8937 244.901 45.4458C243.53 45.9597 242.256 46.7029 241.131 47.6441C239.981 48.6105 239.019 49.7838 238.295 51.104C237.532 52.5117 237.132 54.0895 237.131 55.6931V82.851C237.13 83.3839 237.102 83.9164 237.046 84.4463C237 84.9362 236.881 85.4163 236.693 85.8705C236.527 86.2671 236.262 86.6134 235.923 86.8756C235.55 87.1366 235.103 87.2687 234.648 87.2519H227.758C226.84 87.2519 226.168 87.0381 225.739 86.6018C225.511 86.3513 225.336 86.0568 225.225 85.7362C225.114 85.4157 225.069 85.0758 225.092 84.7371V36.4943C225.119 36.0336 225.294 35.594 225.59 35.2412Z" fill="#fff"/>
<path d="M291.384 87.1151C289.281 87.1035 287.194 86.7644 285.194 86.11C283.351 85.5135 281.64 84.5653 280.153 83.3172C278.71 82.0873 277.55 80.5565 276.752 78.8308C275.893 76.928 275.466 74.8561 275.503 72.7663V44.4493H270.721C270.07 44.4975 269.424 44.3042 268.905 43.9061C268.685 43.6663 268.517 43.3823 268.413 43.0728C268.309 42.7632 268.271 42.4351 268.302 42.1098V36.0966C268.302 35.2925 268.506 34.7194 268.905 34.3859C269.435 34.0141 270.076 33.8374 270.721 33.8855H275.511C275.511 32.4057 275.511 30.9302 275.532 29.4632C275.554 27.9962 275.532 26.5207 275.532 25.0409C275.52 24.7961 275.559 24.5515 275.649 24.3234C275.738 24.0954 275.875 23.8894 276.051 23.7194C276.523 23.3293 277.068 23.0384 277.654 22.864L279.354 22.2524C280.023 22.0158 280.71 21.7863 281.416 21.5639C282.121 21.3415 282.825 21.1519 283.528 20.995C284.074 20.8595 284.633 20.7821 285.194 20.7641C286.045 20.7641 286.618 21.0036 286.895 21.4783C287.183 22.0631 287.319 22.7122 287.29 23.3644C287.29 25.1265 287.29 26.88 287.29 28.6249C287.29 30.3699 287.29 32.1234 287.29 33.8855H293.288C293.896 33.8456 294.494 34.0484 294.954 34.45C295.166 34.6908 295.326 34.9723 295.426 35.2773C295.527 35.5824 295.564 35.9048 295.537 36.2249V41.943C295.537 42.8326 295.341 43.4741 294.954 43.8633C294.73 44.0682 294.466 44.2256 294.18 44.3263C293.894 44.4269 293.591 44.4688 293.288 44.4493H287.218V52.3999C287.218 53.3665 287.218 54.2689 287.218 55.1072C287.218 55.9625 287.218 56.8564 287.218 57.8358V65.2604C287.218 65.316 287.218 65.919 287.218 65.9789C287.212 66.0343 287.212 66.0903 287.218 66.1457V71.6414C287.218 73.489 287.575 74.8191 288.298 75.6275C289.02 76.4358 290.189 76.8464 291.8 76.8464C292.062 76.8344 292.323 76.8852 292.562 76.9945C292.801 77.1038 293.01 77.2685 293.173 77.4751C293.509 77.9045 293.687 78.4382 293.675 78.9848V84.8099C293.704 85.12 293.666 85.4329 293.561 85.7261C293.456 86.0193 293.288 86.2856 293.069 86.506C292.85 86.7263 292.586 86.8951 292.294 87.0004C292.003 87.1057 291.692 87.1449 291.384 87.1151Z" fill="#fff"/>
<path d="M295.923 35.9255C295.902 35.5748 295.964 35.2239 296.106 34.9029C296.249 34.5819 296.466 34.3003 296.74 34.0821C297.244 33.6765 297.871 33.4549 298.516 33.4534H303.826C304.12 33.4335 304.416 33.4795 304.691 33.5882C304.966 33.6969 305.213 33.8656 305.416 34.0821C305.801 34.5346 306.09 35.0614 306.266 35.6304C306.47 36.2796 306.612 36.947 306.691 37.6234C306.772 38.3333 306.869 38.9834 306.98 39.5693C307.61 38.6867 308.296 37.8454 309.033 37.0503C309.81 36.2132 310.685 35.4737 311.639 34.8477C312.66 34.1815 313.767 33.6592 314.929 33.2952C316.279 32.8868 317.684 32.6892 319.095 32.7093C320.35 32.7006 321.603 32.7921 322.844 32.983C323.931 33.1657 324.999 33.4522 326.032 33.8384C327.07 34.2261 328.067 34.7176 329.007 35.3053C329.981 35.9084 331.022 36.5884 332.136 37.4224C332.59 37.7157 333.003 38.068 333.365 38.4702C333.705 38.848 333.89 39.3417 333.883 39.8516C333.854 40.0917 333.813 40.3301 333.76 40.5658C333.695 40.8354 333.581 41.0906 333.424 41.3186L330.023 46.7673C329.821 47.0323 329.555 47.2413 329.25 47.3746C329.009 47.4898 328.747 47.5538 328.48 47.5628C328.035 47.5579 327.597 47.4433 327.205 47.2292C326.29 46.7245 325.457 46.2498 324.706 45.805C323.993 45.3768 323.257 44.9912 322.499 44.6502C321.782 44.3306 321.036 44.0787 320.272 43.8975C319.435 43.707 318.579 43.6151 317.722 43.6238C315.401 43.5648 313.15 44.4231 311.452 46.0145C309.751 47.6055 308.606 49.7996 308.017 52.5966V84.1982C308.017 85.8747 307.167 86.713 305.424 86.713H298.516C296.788 86.713 295.923 85.8747 295.923 84.1982V35.9255Z" fill="#fff"/>
<path d="M324.565 59.6321C324.552 54.8177 325.8 50.0847 328.183 45.9096C330.565 41.7345 333.999 38.2644 338.138 35.8485C340.183 34.652 342.372 33.7221 344.65 33.0814C349.398 31.7699 354.41 31.7699 359.158 33.0814C364.935 34.6775 370.03 38.142 373.656 42.9404C377.282 47.7388 379.238 53.6043 379.222 59.6321C379.238 64.5184 377.944 69.3185 375.477 73.5275C374.285 75.5547 372.844 77.4227 371.188 79.0874C367.857 82.4544 363.71 84.8896 359.158 86.1528C354.41 87.4643 349.398 87.4643 344.65 86.1528C342.372 85.5161 340.184 84.5906 338.138 83.3985C336.121 82.2182 334.263 80.7807 332.612 79.1217C330.957 77.4569 329.518 75.5888 328.327 73.5618C325.856 69.3543 324.561 64.5533 324.578 59.6663L324.565 59.6321ZM336.314 59.6321C336.302 61.804 336.697 63.9588 337.479 65.9832C338.217 67.9177 339.322 69.6897 340.731 71.2009C342.129 72.6908 343.806 73.8871 345.666 74.7208C347.626 75.5949 349.75 76.0325 351.894 76.0038C353.997 76.0291 356.08 75.5912 357.998 74.7208C359.832 73.8846 361.481 72.6878 362.848 71.2009C364.232 69.6822 365.314 67.9111 366.036 65.9832C367.566 61.8964 367.566 57.3891 366.036 53.3023C365.308 51.3531 364.227 49.5565 362.848 48.0033C361.485 46.4788 359.837 45.2392 357.998 44.3552C356.092 43.4416 354.005 42.9765 351.894 42.9951C349.743 42.9733 347.615 43.4381 345.666 44.3552C343.801 45.2365 342.124 46.4757 340.731 48.0033C339.327 49.5491 338.224 51.3466 337.479 53.3023C336.701 55.3205 336.306 57.4675 336.314 59.6321Z" fill="#fff"/>
<path d="M377.046 20.9565C377.022 20.306 377.229 19.668 377.628 19.156C377.853 18.9072 378.132 18.7136 378.443 18.5898C378.754 18.466 379.089 18.4153 379.422 18.4417H386.712C387.006 18.4508 387.295 18.5186 387.563 18.6412C387.831 18.7638 388.072 18.9388 388.272 19.156C388.51 19.3895 388.697 19.6701 388.821 19.98C388.945 20.2899 389.005 20.6224 388.995 20.9565V84.9552C389.021 85.3009 388.973 85.6482 388.854 85.9736C388.735 86.299 388.548 86.5949 388.306 86.8413C387.79 87.2808 387.128 87.5056 386.453 87.47H379.494C378.606 87.47 377.977 87.2605 377.598 86.8413C377.186 86.304 376.986 85.6321 377.037 84.9552L377.046 20.9565Z" fill="#fff"/>
<defs>
<linearGradient id="paint0_linear" x1="99.2518" y1="9.41336" x2="17.6387" y2="93.2972" gradientUnits="userSpaceOnUse">
<stop stop-color="#77C37A"/>
<stop offset="0.52" stop-color="#45BFEB"/>
<stop offset="1" stop-color="#0E7DC1"/>
</linearGradient>
<linearGradient id="paint1_linear" x1="13.577" y1="7.95491" x2="43.8876" y2="102.216" gradientUnits="userSpaceOnUse">
<stop stop-color="#ED1E79"/>
<stop offset="1" stop-color="#00FFFF"/>
</linearGradient>
<linearGradient id="paint2_linear" x1="14920.2" y1="-8567.43" x2="6930.32" y2="-14686.5" gradientUnits="userSpaceOnUse">
<stop stop-color="#77C37A"/>
<stop offset="0.52" stop-color="#45BFEB"/>
<stop offset="1" stop-color="#0E7DC1"/>
</linearGradient>
<linearGradient id="paint3_linear" x1="6497.02" y1="-7346.86" x2="10139.9" y2="-14767.5" gradientUnits="userSpaceOnUse">
<stop stop-color="#ED1E79"/>
<stop offset="1" stop-color="#00FFFF"/>
</linearGradient>
</defs>
</svg>
